<svg width="1280" height="1280" viewBox="0 0 1280 1280" fill="none" xmlns="http://www.w3.org/2000/svg">
<g id="Group 39">
<g id="Group 38">
<path id="Vector" d="M632.852 1.8C630.952 2.7 628.452 4.8 627.352 6.3C625.352 9.1 625.252 10.5 624.952 53.1C624.752 80.8 625.052 98.4 625.652 100.8C626.252 102.9 628.152 105.9 629.752 107.5C632.652 110.2 633.552 110.5 639.752 110.5C645.952 110.5 646.852 110.2 649.752 107.5C651.452 105.9 653.252 103 653.852 101C654.552 98.8 654.752 81.9 654.552 53.3C654.252 10.5 654.152 9.1 652.152 6.3C649.552 2.7 644.252 -1.64658e-06 639.752 -1.64658e-06C637.852 -1.64658e-06 634.752 0.799998 632.852 1.8Z" fill="white"/>
<path id="Vector_2" d="M323.052 84.0995C315.552 86.2995 310.752 94.9995 313.152 102C314.652 106.4 351.752 172.7 355.552 177.9C360.452 184.5 369.552 185.6 375.852 180.3C381.952 175.2 383.252 168.9 379.752 162C377.552 157.7 340.952 92.8995 338.652 89.1995C337.152 86.7995 330.152 82.8995 327.652 83.0995C326.852 83.0995 324.852 83.5995 323.052 84.0995Z" fill="white"/>
<path id="Vector_3" d="M945.952 84.6995C942.052 86.5995 940.952 88.2995 916.852 133.099C901.152 162.399 898.752 167.399 898.752 171.199C898.752 182.699 913.252 190.499 921.552 183.499C924.052 181.399 952.752 129.899 964.652 106.299C967.852 99.7995 967.452 93.8995 963.552 89.3995C958.152 83.2995 952.152 81.5995 945.952 84.6995Z" fill="white"/>
<path id="Vector_4" d="M668.252 154.4C664.952 155.2 660.552 156.5 658.452 157.3C654.852 158.9 654.752 159 654.752 164C654.752 166.9 655.052 169 655.552 168.8C673.652 159.7 686.152 160.1 691.252 170C695.552 178.3 692.352 184.2 671.652 205.7C655.052 223 654.752 223.3 654.752 227.6V232H679.252H703.752V227.5V223H685.652H667.552L682.352 207.7C699.952 189.6 703.052 184.8 703.052 175.4C703.052 170 702.552 168.1 700.052 164.2C694.652 155.5 681.552 151.4 668.252 154.4Z" fill="white"/>
<path id="Vector_5" d="M598.752 156.8L591.252 158.5L590.952 163.2C590.752 165.9 591.052 168 591.452 168C591.852 167.9 596.152 167.1 601.052 166.1L609.752 164.3V193.6V223H601.252H592.752V227.5V232H614.752H636.752V227.5V223H628.252H619.752V189V155L613.052 155.1C609.252 155.1 602.852 155.9 598.752 156.8Z" fill="white"/>
<path id="Vector_6" d="M1177.45 313.199C1174.85 314.099 1108.05 353.599 1101.05 358.299C1096.85 361.199 1094.75 364.999 1094.75 369.999C1094.75 378.299 1099.95 384.099 1107.95 384.699L1113.25 385.199L1151.25 362.599C1172.45 349.899 1190.65 338.399 1192.55 336.499C1198.85 329.699 1196.25 317.899 1187.35 313.899C1182.75 311.799 1181.45 311.699 1177.45 313.199Z" fill="white"/>
<path id="Vector_7" d="M90.6523 314.6C87.2523 316.8 84.0523 321.7 83.2523 326.2C82.2523 331.4 84.9523 336.3 90.6523 339.8C106.352 349.4 167.052 382.2 169.952 382.6C181.752 384.6 191.052 367.8 183.052 359C180.752 356.6 125.052 324.8 106.752 315.5C101.052 312.6 94.5523 312.3 90.6523 314.6Z" fill="white"/>
<path id="Vector_8" d="M1090.25 596C1088.05 596.6 1085.25 597.2 1084.05 597.5C1082.05 598 1081.75 598.7 1081.75 602.5C1081.75 605 1081.95 607 1082.25 607C1082.45 607 1085.25 606.3 1088.45 605.5C1091.55 604.7 1097.35 604 1101.35 604C1107.05 604 1109.15 604.4 1111.85 606.3C1116.25 609.3 1117.95 612.6 1117.35 617.3C1116.45 624.7 1110.85 628 1099.05 628H1092.75V632.4V636.8L1101.65 637.2C1111.85 637.6 1114.95 639.1 1118.15 645.4C1122.05 653.3 1117.55 662.6 1108.45 665.1C1102.45 666.7 1089.15 665.7 1083.35 663.2L1078.65 661.1L1078.95 666.3L1079.25 671.5L1084.25 672.8C1092.15 674.9 1103.85 675.4 1109.85 674C1122.05 671.2 1128.55 664.7 1129.45 654.1C1130.45 643.9 1126.65 637 1118.35 633.5L1114.55 631.9L1118.85 629.7C1121.25 628.5 1124.25 625.9 1125.55 624C1127.55 621 1127.85 619.5 1127.55 613.9C1126.85 601.6 1119.25 595.8 1103.25 595.3C1098.35 595.2 1092.45 595.5 1090.25 596Z" fill="white"/>
<path id="Vector_9" d="M163.652 599.399C152.652 603.299 146.952 613.299 147.952 626.799C149.052 641.699 157.752 649.999 172.552 649.999C178.652 649.999 182.852 648.399 187.452 644.599L190.752 641.799L190.152 645.199C187.952 657.499 183.752 664.899 177.052 667.599C172.752 669.399 164.252 669.399 158.152 667.499C155.452 666.699 153.152 665.999 153.052 665.999C152.852 665.999 152.752 667.999 152.752 670.399C152.752 674.499 153.052 674.899 156.052 675.999C161.952 678.099 171.952 678.399 177.952 676.599C188.352 673.599 196.852 663.199 199.652 650.199C203.052 633.999 198.652 611.799 190.552 604.299C184.452 598.599 172.152 596.299 163.652 599.399ZM181.652 608.699C186.252 612.199 188.252 616.799 188.252 623.999C188.252 636.099 182.352 642.499 171.952 641.699C168.152 641.399 166.052 640.699 164.152 638.899C154.952 630.299 156.352 613.099 166.752 607.699C171.052 605.499 177.852 605.899 181.652 608.699Z" fill="white"/>
<path id="Vector_10" d="M9.05242 626.1C-3.24758 629.7 -2.94758 650.5 9.55242 654C11.8524 654.6 30.0524 655 56.2524 655C95.1524 655 99.5524 654.8 102.752 653.2C112.752 648.2 113.552 633.5 104.052 627.3C101.552 625.6 97.8524 625.5 56.7524 625.3C31.4524 625.2 10.8524 625.5 9.05242 626.1Z" fill="white"/>
<path id="Vector_11" d="M1175.05 626.899C1170.05 629.199 1167.35 633.699 1167.35 639.999C1167.35 646.499 1170.05 650.799 1175.35 653.099C1179.45 654.999 1181.95 655.099 1225.15 654.799C1269.35 654.499 1270.65 654.399 1273.45 652.399C1281.65 646.399 1281.65 633.599 1273.45 627.599C1270.65 625.599 1269.35 625.499 1224.95 625.299C1181.75 624.999 1179.05 625.099 1175.05 626.899Z" fill="white"/>
<path id="Vector_12" d="M128.152 917.5C107.052 930.1 88.8524 941.6 87.0524 943.5C80.3524 950.6 83.5524 962.9 93.1524 966.5C96.7524 967.9 98.2524 968 101.052 967.1C104.152 966.1 169.852 927.5 178.452 921.7C190.252 913.7 184.452 895 170.152 895C166.652 895 161.052 898 128.152 917.5Z" fill="white"/>
<path id="Vector_13" d="M1103.65 899.199C1096.25 903.399 1093.55 913.499 1098.05 919.999C1099.75 922.599 1108.95 928.299 1137.65 944.699C1158.25 956.399 1176.75 966.499 1178.85 967.099C1182.05 968.099 1183.15 967.999 1187.15 966.099C1198.65 960.499 1199.35 946.599 1188.55 939.899C1179.95 934.499 1120.15 900.599 1116.25 898.899C1111.05 896.499 1108.05 896.599 1103.65 899.199Z" fill="white"/>
<path id="Vector_14" d="M641.952 1058.4C625.652 1063.7 617.752 1080.6 619.852 1105.2C620.852 1116.6 623.952 1124.4 629.652 1130.1C634.652 1135.2 639.252 1137 647.152 1137C654.652 1137 659.752 1135 664.952 1130C670.852 1124.3 673.352 1116.8 672.352 1107.6C670.852 1092.8 662.152 1085 647.352 1085C641.152 1085 636.952 1086.7 632.552 1090.8C629.952 1093.2 629.752 1093.2 629.752 1091.4C629.752 1087.5 632.852 1077.4 635.252 1073.9C639.952 1066.8 650.452 1064.2 661.352 1067.5C664.052 1068.3 666.552 1069 667.052 1069C667.452 1069 667.752 1067 667.752 1064.5C667.752 1060.3 667.652 1060 664.052 1059C657.852 1057.1 646.752 1056.9 641.952 1058.4ZM654.852 1095.3C659.652 1098.5 661.752 1103.2 661.752 1111C661.652 1125.1 650.952 1133 639.752 1127.2C629.552 1121.9 629.052 1101.1 638.952 1095C643.552 1092.2 650.452 1092.3 654.852 1095.3Z" fill="white"/>
<path id="Vector_15" d="M904.552 1095C897.652 1098.7 894.452 1106 897.152 1112.4C898.752 1116.3 935.052 1181.5 939.952 1189.2C945.352 1197.8 955.252 1199 962.552 1191.9C966.352 1188.2 967.952 1183.2 966.652 1178.7C966.152 1177 955.952 1157.9 943.952 1136.5C920.452 1094.7 919.152 1093 911.852 1093C909.852 1093.1 906.552 1094 904.552 1095Z" fill="white"/>
<path id="Vector_16" d="M363.253 1098C361.153 1099.3 352.853 1111.9 336.353 1138.7C314.653 1173.8 312.353 1177.9 312.353 1182C312.153 1190.2 318.753 1196 328.153 1196C331.953 1196 333.353 1195.4 336.253 1192.7C340.053 1189.2 383.353 1119.7 385.353 1113.9C389.453 1102.2 373.953 1091.1 363.253 1098Z" fill="white"/>
<path id="Vector_17" d="M633.153 1168.9C630.053 1170.3 625.953 1175.7 625.253 1179.3C624.953 1181.1 624.753 1202.4 624.953 1226.7C625.253 1269.5 625.353 1270.9 627.353 1273.7C633.353 1281.9 646.153 1281.9 652.153 1273.7C654.153 1270.9 654.253 1269.5 654.553 1226.2C654.753 1197.3 654.553 1180.2 653.853 1178C653.253 1176 651.453 1173.1 649.753 1171.5C647.253 1169.1 645.753 1168.6 641.053 1168.3C637.853 1168.2 634.353 1168.4 633.153 1168.9Z" fill="white"/>
</g>
<g id="clock-face">
<path id="seconds-hand" d="M70.2656 647L326.394 647L640 647L640 634L327.957 633C74.0858 633 71.8283 633 68.3554 635C64.1879 637.4 63.8406 641.7 67.6609 644.8L70.2656 647Z" fill="#FF2442"/>
<path id="minutes-hand" d="M158.451 647L374.935 647L640 647L640 634L376.256 633C161.679 633 159.771 633 156.836 635C153.314 637.4 153.02 641.7 156.249 644.8L158.451 647Z" fill="#FEE440"/>
<path id="hours-hand" d="M312.032 633L459.532 633L640.132 633L640.132 646L460.432 647C314.232 647 312.932 647 310.932 645C308.532 642.6 308.332 638.3 310.532 635.2L312.032 633Z" fill="#3DB2FF"/>
<circle id="Ellipse 13" cx="640.017" cy="640.384" r="37.7237" transform="rotate(-2 640.017 640.384)" fill="white"/>
</g>
</g>
</svg>
